<svg xmlns="http://www.w3.org/2000/svg" xmlns:xlink="http://www.w3.org/1999/xlink" version="1.1" x="0px" y="0px" viewBox="0 0 20 25" style="enable-background:new 0 0 20 20;" xml:space="preserve"><g><path d="M10,10c1.1,0,2-0.9,2-2c0-1.5-1.5-2.4-2.9-1.8c0.6,0.6-0.3,1.6-0.9,0.9C7.6,8.5,8.6,10,10,10z"/><path d="M15.2,16.5c-3.1,2-7.3,2-10.5,0l-1.6,2C2.7,19.2,3.2,20,4,20h12c0.8,0,1.3-0.8,0.9-1.5L15.2,16.5z"/><path d="M10,16c4.4,0,8-3.6,8-8c0-4.4-3.6-8-8-8S2,3.6,2,8C2,12.4,5.6,16,10,16z M10,1c0.6,0,1,0.4,1,1c0,0.6-0.4,1-1,1S9,2.6,9,2   C9,1.4,9.4,1,10,1z M10,4c2.2,0,4,1.8,4,4c0,2.2-1.8,4-4,4s-4-1.8-4-4C6,5.8,7.8,4,10,4z"/></g><text x="0" y="35" fill="#000000" font-size="5px" font-weight="bold" font-family="'Helvetica Neue', Helvetica, Arial-Unicode, Arial, Sans-serif">Created by ProSymbols</text><text x="0" y="40" fill="#000000" font-size="5px" font-weight="bold" font-family="'Helvetica Neue', Helvetica, Arial-Unicode, Arial, Sans-serif">from the Noun Project</text></svg>